HIERARCHY
ROOT Hips
{
	OFFSET -3.958830 18.904000 13.208200
	CHANNELS 6 Xposition Yposition Zposition Zrotation Yrotation Xrotation 
	JOINT LHipJoint
	{
		OFFSET 0.000000 0.000000 0.000000
		CHANNELS 3 Zrotation Yrotation Xrotation
		JOINT LeftUpLeg
		{
			OFFSET 1.800000 -1.400000 0.085000
			CHANNELS 3 Zrotation Yrotation Xrotation
			JOINT LeftLeg
			{
				OFFSET 2.215000 -6.000000 0.000000
				CHANNELS 3 Zrotation Yrotation Xrotation
				JOINT LeftFoot
				{
					OFFSET 2.500000 -6.900000 0.000000
					CHANNELS 3 Zrotation Yrotation Xrotation
					JOINT LeftToeBase
					{
						OFFSET 0.200000 -0.500000 1.950000
						CHANNELS 3 Zrotation Yrotation Xrotation
						End Site
						{
							OFFSET 0.000000 0.000000 0.000000
						}
					}
				}
			}
		}
	}
	JOINT RHipJoint
	{
		OFFSET 0.000000 0.000000 0.000000
		CHANNELS 3 Zrotation Yrotation Xrotation
		JOINT RightUpLeg
		{
			OFFSET -1.800000 -1.400000 0.085000
			CHANNELS 3 Zrotation Yrotation Xrotation
			JOINT RightLeg
			{
				OFFSET -2.215000 -6.000000 0.000000
				CHANNELS 3 Zrotation Yrotation Xrotation
				JOINT RightFoot
				{
					OFFSET -2.500000 -6.900000 0.000000
					CHANNELS 3 Zrotation Yrotation Xrotation
					JOINT RightToeBase
					{
						OFFSET -0.200000 -0.500000 1.950000
						CHANNELS 3 Zrotation Yrotation Xrotation
						End Site
						{
							OFFSET 0.000000 0.000000 0.000000
						}
					}
				}
			}
		}
	}
	JOINT LowerBack
	{
		OFFSET 0.000000 0.000000 0.000000
		CHANNELS 3 Zrotation Yrotation Xrotation
		JOINT Spine
		{
			OFFSET -0.087000 1.940000 -0.288900
			CHANNELS 3 Zrotation Yrotation Xrotation
			JOINT Spine1
			{
				OFFSET 0.000000 1.950000 0.060000
				CHANNELS 3 Zrotation Yrotation Xrotation
				JOINT Neck
				{
					OFFSET 0.000000 0.000000 0.000000
					CHANNELS 3 Zrotation Yrotation Xrotation
					JOINT Neck1
					{
						OFFSET 0.000000 1.600000 0.340000
						CHANNELS 3 Zrotation Yrotation Xrotation
						JOINT Head
						{
							OFFSET 0.000000 1.667000 -0.240000
							CHANNELS 3 Zrotation Yrotation Xrotation
							End Site
							{
								OFFSET 0.000000 0.000000 0.000000
							}
						}
					}
				}
				JOINT LeftShoulder
				{
					OFFSET 0.000000 0.000000 0.000000
					CHANNELS 3 Zrotation Yrotation Xrotation
					JOINT LeftArm
					{
						OFFSET 2.700000 1.550000 -0.730000
						CHANNELS 3 Zrotation Yrotation Xrotation
						JOINT LeftForeArm
						{
							OFFSET 5.450000 0.000000 0.000000
							CHANNELS 3 Zrotation Yrotation Xrotation
							JOINT LeftHand
							{
								OFFSET 3.450000 0.000000 0.000000
								CHANNELS 3 Zrotation Yrotation Xrotation
								JOINT LeftHandIndex1
								{
									OFFSET 0.750000 0.000000 0.000000
									CHANNELS 3 Zrotation Yrotation Xrotation
									End Site
									{
										OFFSET 0.000000 0.000000 0.000000
									}
								}
							}
						}
					}
				}
				JOINT RightShoulder
				{
					OFFSET 0.000000 0.000000 0.000000
					CHANNELS 3 Zrotation Yrotation Xrotation
					JOINT RightArm
					{
						OFFSET -2.700000 1.550000 -0.730000
						CHANNELS 3 Zrotation Yrotation Xrotation
						JOINT RightForeArm
						{
							OFFSET -5.450000 0.000000 0.000000
							CHANNELS 3 Zrotation Yrotation Xrotation
							JOINT RightHand
							{
								OFFSET -3.450000 0.000000 0.000000
								CHANNELS 3 Zrotation Yrotation Xrotation
								JOINT RightHandIndex1
								{
									OFFSET -0.750000 0.000000 0.000000
									CHANNELS 3 Zrotation Yrotation Xrotation
									End Site
									{
										OFFSET 0.000000 0.000000 0.000000
									}
								}
							}
						}
					}
				}
			}
		}
	}
}
MOTION
Frames: 10
Frame Time: 0.016667
0.599840 16.628200 -3.150950 4.082328 26.601765 -22.955457 -15.461420 13.909866 3.257434 -9.003860 -2.163519 -6.382962 7.244061 4.726203 39.455905 2.487461 4.726408 3.363540 3.977240 2.886480 4.053930 17.778119 -9.608305 3.964876 -21.461577 13.509281 -9.642747 32.848495 -20.124715 44.643205 -3.264020 -9.713669 0.799640 0.612630 -2.265860 1.353850 -3.118227 -4.062844 -8.608128 15.934661 -9.469194 49.549820 -24.188907 3.702345 11.760193 19.278003 -3.139662 -26.478397 -16.232666 4.682906 64.840240 -3.563850 -5.090390 -32.578950 -39.659536 -27.214316 15.813634 -30.101115 2.684072 -32.463859 -45.994010 -56.937950 9.277850 3.851449 6.834090 0.732900 -1.144260 1.806690 0.555270 0.814762 47.463478 6.821797 -12.630165 11.314211 -14.670635 -28.069286 -6.802887 -2.980810 4.612106 -3.638691 2.179260 -1.881700 -3.181260 -0.220590 
0.617980 16.621300 -3.136110 4.645660 26.953988 -23.740753 -15.472420 13.949118 3.299766 -9.554262 -1.941453 -5.386659 7.861854 4.350470 38.854675 2.513332 4.562071 3.399312 3.994250 3.027420 3.937520 17.769946 -9.565997 3.942594 -20.910297 13.247784 -8.934112 33.266103 -20.106776 44.127321 -3.298993 -9.705156 0.865085 0.682210 -2.265190 1.347140 -3.093935 -4.209985 -8.588510 15.079407 -9.401188 49.962541 -23.525590 3.175851 11.895533 19.026670 -3.556401 -26.654277 -17.963418 6.357699 66.052488 -2.911190 -4.910820 -34.066380 -40.381018 -28.041576 16.556644 -29.810219 2.970831 -33.374595 -46.694094 -57.200096 9.154557 4.258536 6.940275 0.714490 -1.131960 1.854410 0.620970 2.163784 48.440043 6.779291 -12.290245 11.629504 -16.792612 -32.332509 -3.997200 -4.014381 4.434739 -3.778756 2.212220 -1.861560 -3.207520 -0.154030 
0.637720 16.598950 -3.109580 5.448326 27.335381 -23.642995 -15.505893 13.950240 3.410755 -10.469386 -2.109799 -5.184223 8.598822 4.050841 39.060844 2.468002 4.681332 3.369354 4.018510 2.913410 4.095860 17.740413 -9.572552 3.863244 -20.373255 12.726199 -9.055423 31.943651 -20.015171 45.006641 -3.277103 -9.658309 0.800448 0.635100 -2.294060 1.351950 -2.998125 -4.314879 -8.618385 13.748524 -8.702987 49.215849 -22.597058 3.227419 13.566082 18.995367 -2.940467 -26.522565 -16.625233 5.318117 66.854106 -3.807690 -5.553130 -33.944080 -40.702143 -29.061194 17.287867 -28.755750 1.833167 -33.537647 -47.853294 -57.118329 9.633714 4.805784 7.149165 0.759800 -1.176250 1.824050 0.545000 2.350162 48.913002 6.746843 -10.918594 11.868418 -19.447767 -37.558520 -1.928489 -5.357588 4.377152 -3.945263 2.185150 -1.867970 -3.182920 -0.232100 
0.660940 16.574040 -3.085320 4.965167 27.192763 -23.626841 -15.517416 13.986577 3.422957 -10.616116 -2.163116 -5.768923 9.729932 3.626646 39.860641 2.426227 4.831179 3.330673 3.994670 2.831610 4.126380 17.733854 -9.543507 3.883897 -19.082332 12.736463 -9.607493 31.360783 -20.488050 46.461993 -3.299312 -9.804607 0.743958 0.612500 -2.277070 1.341560 -2.965823 -4.384622 -8.638749 14.401139 -8.668328 48.022684 -22.132013 3.207005 14.068502 19.116900 -2.969666 -26.214321 -16.406775 5.096486 67.251830 -4.748850 -5.921100 -33.251570 -42.176773 -29.733878 18.173211 -28.590639 2.473301 -34.407264 -49.206473 -57.798939 9.615533 5.535933 7.371614 0.777760 -1.176280 1.780080 0.507820 3.566842 49.633765 6.237696 -9.555551 12.981857 -21.516788 -42.832061 -0.461801 -6.626467 4.278773 -4.028506 2.144490 -1.852390 -3.143240 -0.270580 
0.681160 16.541400 -3.046250 5.470987 26.839449 -23.154351 -15.547549 14.000621 3.470534 -11.096657 -2.201883 -6.475549 10.348279 3.540071 41.075767 2.387975 5.057591 3.252334 3.979910 2.794740 4.126960 17.714352 -9.520150 3.835861 -18.505548 12.666749 -9.914855 29.948595 -20.854090 48.542976 -3.325149 -10.008784 0.681060 0.611650 -2.250050 1.338250 -2.871564 -4.428345 -8.681321 13.763357 -7.259426 46.736808 -20.637305 3.400317 14.290492 18.745003 -3.217286 -24.887061 -15.409089 4.775343 66.834621 -5.205400 -5.471710 -34.372920 -43.507319 -30.089685 18.911298 -27.950121 2.548399 -33.506629 -49.519674 -57.788552 10.063595 5.431175 7.389883 0.799000 -1.164840 1.742150 0.480090 5.822476 50.027647 4.909312 -7.640635 15.754901 -23.091498 -49.106602 0.790770 -8.113672 4.087775 -4.036204 2.110780 -1.828770 -3.093800 -0.300770 
0.703090 16.512800 -3.015100 5.838843 26.598288 -22.867738 -15.553677 13.983115 3.481999 -10.883556 -2.385688 -6.962951 9.304357 4.124254 42.124641 2.424645 5.248695 3.188901 3.969200 2.769530 4.143110 17.715151 -9.513602 3.817006 -18.056270 12.530683 -10.032158 29.288407 -21.324481 49.938510 -3.362543 -10.179665 0.630054 0.591940 -2.254400 1.344340 -2.857414 -4.362820 -8.721737 13.361481 -6.465033 45.871767 -19.451000 3.170338 14.119418 17.981675 -2.925377 -24.114622 -13.779203 4.192928 67.300194 -5.873430 -4.826470 -34.597830 -44.608374 -30.366396 19.409624 -28.207113 3.213992 -33.196213 -49.596090 -58.195128 10.162042 5.262737 7.365788 0.794160 -1.164810 1.733710 0.458320 8.431857 49.744089 5.020470 -4.973339 17.418934 -25.170674 -56.246384 6.996318 -11.659306 3.917233 -4.008801 2.114430 -1.841880 -3.082170 -0.311140 
0.730290 16.487000 -2.989770 6.247618 26.284394 -22.434701 -15.553105 13.882720 3.528691 -11.406044 -2.581196 -7.499831 9.016439 4.423993 43.533059 2.483279 5.495751 3.116593 3.952380 2.741540 4.138520 17.733020 -9.481416 3.833775 -18.257447 12.573407 -10.687661 28.993939 -22.083733 51.602657 -3.410795 -10.455994 0.554159 0.586470 -2.252260 1.351760 -2.875155 -4.212957 -8.794449 13.122465 -5.805356 44.869629 -18.257074 2.926300 13.522284 17.064664 -2.745622 -23.512433 -12.279673 3.597217 68.198817 -6.771300 -4.475010 -33.535120 -46.170896 -30.743395 19.967867 -28.614303 5.566943 -32.698444 -50.804341 -58.902000 10.841466 5.555526 7.516832 0.781870 -1.151070 1.723750 0.455510 11.895401 49.824744 4.935314 -2.105025 19.684184 -26.054837 -62.994371 12.013773 -15.281602 3.790104 -3.930815 2.107280 -1.858450 -3.082230 -0.314550 
0.743330 16.466920 -2.964700 6.325051 26.023017 -22.216985 -15.579063 13.884775 3.510016 -11.059245 -2.596616 -7.709813 7.924603 5.078819 44.174513 2.474062 5.669909 3.062866 3.927290 2.718140 4.098000 17.716584 -9.414030 3.860065 -18.309588 12.620358 -10.983137 29.196735 -22.724912 52.419339 -3.447986 -10.660691 0.516428 0.582630 -2.229950 1.344200 -2.787922 -4.292881 -8.834422 12.456006 -5.292453 44.097120 -16.862363 2.479811 13.800170 16.875566 -3.366845 -22.951597 -12.795455 4.144966 67.578746 -7.958150 -3.958070 -33.814320 -46.534454 -30.528330 20.188328 -30.430155 6.660749 -33.185605 -51.849363 -60.946473 10.895580 5.628935 7.503324 0.790920 -1.136090 1.693960 0.456520 12.910555 49.942691 4.932533 0.192303 21.419721 -26.847972 -68.277661 15.491753 -18.703293 3.681628 -3.860035 2.082430 -1.848760 -3.051940 -0.323400 
0.749960 16.455040 -2.943390 7.160135 25.609277 -21.874930 -15.638205 13.879777 3.577154 -11.737584 -2.671635 -7.643314 7.662433 5.249452 44.319153 2.442283 5.752164 3.031195 3.925890 2.699360 4.116410 17.671557 -9.337233 3.813128 -19.041086 12.479500 -11.264299 28.636342 -22.969464 53.362384 -3.458844 -10.792997 0.472742 0.591770 -2.233790 1.349070 -2.592660 -4.463330 -8.884451 10.270369 -4.148176 43.672952 -15.212703 2.357237 14.344732 16.676510 -3.048261 -22.526264 -11.208068 3.849829 67.514526 -9.790160 -3.056820 -34.215300 -47.257318 -30.894740 20.528280 -30.361139 7.697607 -33.348963 -53.074392 -61.682045 11.214372 6.193384 7.683299 0.810010 -1.122920 1.685200 0.442530 14.165715 50.283832 4.814377 2.120444 22.954936 -27.492336 -72.355837 18.551666 -21.923097 3.599178 -3.781673 2.058160 -1.845510 -3.038060 -0.354130 
0.762610 16.438410 -2.931130 7.243103 25.317869 -21.619771 -15.628107 13.801957 3.599542 -11.731587 -2.988455 -8.130439 7.132591 5.536914 45.073697 2.455509 5.898265 2.985680 3.918470 2.680880 4.134940 17.689260 -9.356200 3.807573 -19.503371 12.100858 -11.985271 28.234669 -23.243401 53.950999 -3.462648 -10.871315 0.438953 0.585020 -2.232190 1.351870 -2.631279 -4.312191 -8.915449 9.877949 -3.961712 42.959320 -14.487701 1.885871 14.961130 15.988455 -2.654998 -22.232751 -9.903284 3.446723 67.308065 -10.621450 -2.491470 -34.224120 -46.903931 -31.217022 20.556433 -29.857450 7.088730 -32.963361 -51.551815 -60.759977 10.787481 5.396828 7.448335 0.805510 -1.114480 1.676970 0.426400 15.129750 49.865634 5.445939 4.945301 24.546807 -28.175583 -77.613212 21.995923 -26.562132 3.530063 -3.707794 2.052240 -1.844890 -3.028200 -0.366650 
